<?xml version="1.0" standalone="no"?>
<!DOCTYPE svg PUBLIC "-//W3C//DTD SVG 20010904//EN"
 "http://www.w3.org/TR/2001/REC-SVG-20010904/DTD/svg10.dtd">
<svg version="1.0" xmlns="http://www.w3.org/2000/svg"
 width="260.000000pt" height="260.000000pt" viewBox="0 0 260.000000 260.000000"
 preserveAspectRatio="xMidYMid meet">
<metadata>
Created by potrace 1.11, written by Peter Selinger 2001-2013
</metadata>
<g transform="translate(0.000000,260.000000) scale(0.100000,-0.100000)"
fill="#000000" stroke="none">
<path d="M448 2240 c-52 -16 -98 -52 -126 -98 -25 -44 -27 -54 -26 -162 1
-126 20 -201 91 -362 26 -61 33 -86 27 -111 -8 -40 -40 -82 -79 -107 -29 -20
-29 -20 -7 -26 28 -8 28 -21 -3 -66 -24 -36 -94 -78 -131 -78 -17 -1 -16 -3 6
-21 l25 -21 -40 -35 c-22 -19 -52 -37 -67 -40 -16 -3 -28 -10 -28 -16 0 -5 17
-37 38 -71 22 -34 44 -71 51 -83 11 -22 10 -22 -20 -16 l-31 6 16 -30 c17 -35
56 -75 122 -130 45 -36 45 -37 22 -49 -13 -7 -23 -15 -23 -19 0 -3 24 -14 53
-24 28 -10 88 -42 131 -72 66 -45 76 -55 59 -61 -61 -24 58 -56 252 -69 199
-13 243 -22 313 -64 90 -54 144 -68 245 -63 82 4 93 7 188 57 l101 53 188 14
c179 13 287 32 300 55 4 6 -2 13 -14 16 -18 5 -15 10 31 44 61 45 165 99 190
99 28 0 30 18 3 33 l-26 13 63 53 c70 59 102 95 112 129 7 21 6 21 -20 12 -15
-6 -28 -9 -30 -7 -2 2 19 40 46 84 28 45 50 86 50 91 0 5 -12 12 -28 15 -15 3
-45 21 -67 40 l-40 35 25 21 c22 18 23 20 6 21 -37 0 -107 42 -131 78 -31 45
-31 58 -2 66 21 6 21 6 -8 26 -39 25 -71 67 -79 107 -6 25 1 50 27 111 71 161
90 236 91 362 1 109 -1 118 -27 162 -77 132 -274 144 -444 27 -73 -51 -144
-119 -193 -185 -25 -33 -56 -60 -87 -75 -46 -23 -58 -24 -248 -24 -190 0 -202
1 -248 24 -31 15 -62 41 -86 75 -81 109 -210 210 -315 246 -61 21 -148 25
-198 10z m173 -74 c175 -61 310 -210 311 -342 1 -58 -16 -109 -38 -118 -17 -7
-17 -8 1 44 19 55 19 105 -2 166 -34 102 -198 225 -338 254 -30 6 -55 13 -55
16 0 11 62 1 121 -20z m1469 20 c0 -3 -25 -10 -55 -16 -140 -29 -304 -152
-338 -254 -21 -61 -21 -111 -2 -166 18 -52 18 -51 1 -44 -22 9 -39 60 -38 118
1 132 136 281 311 342 59 21 121 31 121 20z m-1443 -76 c93 -41 185 -176 199
-293 10 -88 -30 -156 -110 -187 l-25 -9 25 36 c13 20 24 48 24 64 0 42 -44 88
-92 95 -27 5 -35 10 -26 15 21 13 70 10 102 -6 36 -19 39 -16 29 26 -11 43
-76 79 -143 79 l-45 1 29 15 c16 9 46 17 66 18 33 1 37 3 28 19 -13 24 -72 49
-128 53 -25 2 -47 4 -50 4 -3 1 17 9 45 19 50 18 50 18 25 31 -14 8 -54 16
-90 20 l-65 6 35 12 c43 14 111 6 167 -18z m1433 -7 c-30 -7 -66 -23 -80 -33
l-25 -20 37 0 c20 0 40 -4 43 -10 4 -6 -7 -10 -26 -10 -37 0 -108 -32 -133
-59 -16 -18 -14 -19 43 -25 63 -7 94 -26 42 -26 -61 0 -126 -42 -157 -102 -17
-33 -13 -34 43 -7 23 11 53 19 65 17 20 -3 18 -6 -16 -22 -40 -20 -75 -77 -76
-123 0 -36 -16 -27 -42 25 -43 87 -23 225 47 316 15 20 53 48 88 66 51 25 71
30 131 29 l71 -1 -55 -15z m-1032 -659 c29 -14 68 -40 87 -59 38 -35 51 -32
35 9 -14 39 -3 31 19 -11 35 -71 52 -206 32 -258 -7 -17 -9 -15 -16 15 -18 84
-80 163 -148 189 -28 11 -28 11 -13 -11 23 -33 19 -45 -6 -21 -58 53 -187 80
-253 52 l-30 -12 30 -7 30 -6 -49 -22 c-27 -12 -71 -38 -98 -58 -28 -19 -60
-39 -71 -44 l-22 -9 23 -7 c12 -3 22 -10 22 -15 0 -18 -72 -64 -107 -69 -36
-5 -36 -6 -18 -23 15 -16 16 -20 4 -28 -15 -10 -34 -12 -62 -9 -16 1 -18 -3
-12 -32 3 -18 17 -54 29 -81 21 -44 22 -47 5 -42 -28 9 -23 -6 19 -69 73 -108
197 -188 327 -208 79 -12 96 -8 75 17 -17 21 -15 103 5 149 21 48 104 138 159
170 22 13 65 31 93 39 61 18 65 15 77 -60 10 -70 -11 -142 -55 -183 -46 -43
-55 -75 -35 -124 21 -51 78 -76 171 -76 93 0 150 25 171 76 20 49 11 81 -35
124 -44 41 -65 113 -55 183 12 75 16 78 77 60 28 -8 71 -26 93 -39 55 -32 138
-122 159 -170 20 -46 22 -128 5 -149 -21 -25 -4 -29 75 -17 130 20 254 100
327 208 42 63 47 78 19 69 -17 -5 -16 -2 5 42 12 27 26 63 29 81 6 29 4 33
-12 32 -28 -3 -47 -1 -62 9 -12 8 -11 12 4 28 18 17 18 18 -18 23 -35 5 -107
51 -107 69 0 5 10 12 23 15 l22 7 -22 9 c-11 5 -43 25 -71 44 -27 20 -71 46
-98 58 l-49 22 30 6 30 7 -30 12 c-66 28 -195 1 -252 -52 -26 -24 -30 -12 -7
21 15 22 15 22 -13 11 -68 -26 -130 -105 -148 -189 -7 -30 -9 -32 -16 -15 -20
52 -3 187 32 258 22 42 33 50 19 11 -16 -41 -3 -44 35 -9 39 38 123 81 175 92
32 6 34 5 21 -11 -13 -15 -11 -16 30 -9 85 15 230 9 274 -12 l40 -19 -35 -4
c-35 -3 -68 -22 -40 -22 7 0 59 -19 114 -41 55 -23 117 -42 138 -43 43 -1 42
0 26 -26 -10 -16 -8 -22 17 -42 17 -12 53 -47 80 -77 28 -29 65 -60 83 -68 17
-7 32 -18 32 -23 0 -6 -23 -52 -51 -102 -156 -280 -348 -417 -614 -438 -133
-11 -150 -16 -272 -77 -92 -46 -101 -48 -178 -48 -77 0 -86 2 -178 48 -122 61
-139 66 -272 77 -266 21 -458 158 -614 438 -28 50 -51 96 -51 102 0 5 15 16
33 23 17 8 55 39 82 68 28 30 63 65 80 77 25 20 27 26 17 42 -16 26 -17 25 26
26 21 1 83 20 138 43 55 22 107 41 114 41 28 0 -5 19 -40 22 l-35 4 40 19 c44
21 189 27 274 12 41 -7 43 -6 30 9 -13 16 -11 17 21 11 19 -4 59 -19 88 -33z
m-26 -295 c75 -59 78 -63 42 -56 -24 5 -36 1 -49 -13 -41 -46 -112 -6 -102 57
6 34 5 35 -20 28 -23 -5 -25 -4 -14 9 26 31 84 20 143 -25z m689 25 c11 -13 9
-14 -14 -9 -25 7 -26 6 -20 -28 10 -63 -61 -103 -102 -57 -13 14 -25 18 -49
13 -36 -7 -33 -3 42 56 59 45 117 56 143 25z"/>
<path d="M1253 473 c26 -2 67 -2 90 0 23 2 2 3 -48 3 -49 0 -68 -1 -42 -3z"/>
<path d="M967 1134 c-9 -10 4 -34 19 -34 8 0 14 4 14 9 0 12 -26 32 -33 25z"/>
<path d="M1602 1128 c-16 -16 -15 -28 2 -28 16 0 29 27 17 34 -4 3 -13 0 -19
-6z"/>
</g>
</svg>
